<svg xmlns="http://www.w3.org/2000/svg" width="31.597" height="24.434" viewBox="0 0 31.597 24.434"><defs><style>.a,.b{fill:#ed1c24;}.c,.d{stroke:none;}.d{fill:#fff;}</style></defs><g transform="translate(-361.681 -472.869)"><g transform="translate(392.278 497.303) rotate(180)"><path class="a" d="M22.167,7.493S17.8,11.552,15.3,11.552H9.679C5,11.552,0,7.493,0,6.244V.624L2.032.044A3.9,3.9,0,0,0,5.932,3.9,3.9,3.9,0,0,0,9.835,0H20.762a3.9,3.9,0,0,0,3.9,3.9,3.9,3.9,0,0,0,3.9-3.859L30.6.624V4.059C30.6,5.308,27.475,6.869,22.167,7.493ZM11.24,7.2l-7.633.263A11.552,11.552,0,0,0,9.679,9.679H11.24Zm1.873-.065V9.679H15.3c.891,0,2.963-1.327,4.7-2.778Z" transform="translate(0 2.654)"/><circle class="a" cx="2.654" cy="2.654" r="2.654" transform="translate(3.279 0)"/><circle class="a" cx="2.654" cy="2.654" r="2.654" transform="translate(22.011 0)"/></g><g class="b" transform="translate(375.869 471.869)"><path class="c" d="M 9.20458984375 16.9091796875 C 4.956259727478027 16.9091796875 1.49999988079071 13.45291996002197 1.49999988079071 9.20458984375 C 1.49999988079071 4.956259727478027 4.956259727478027 1.49999988079071 9.20458984375 1.49999988079071 C 13.45291996002197 1.49999988079071 16.9091796875 4.956259727478027 16.9091796875 9.20458984375 C 16.9091796875 13.45291996002197 13.45291996002197 16.9091796875 9.20458984375 16.9091796875 Z M 6.030069828033447 8.789010047912598 C 5.984179973602295 8.789010047912598 5.915829658508301 8.80265998840332 5.850780010223389 8.86769962310791 C 5.745219707489014 8.973259925842285 5.745219707489014 9.120719909667969 5.850780010223389 9.226280212402344 L 7.982140064239502 11.35764026641846 L 7.991439819335938 11.36693000793457 L 8.000239372253418 11.37670993804932 C 8.033840179443359 11.41403961181641 8.091289520263672 11.43632984161377 8.15392017364502 11.43632984161377 C 8.20872974395752 11.43632984161377 8.279359817504883 11.40396976470947 8.325699806213379 11.35764026641846 L 12.55776977539062 7.110549926757812 C 12.66249942779541 7.005820751190186 12.66646862030029 6.854043006896973 12.56875419616699 6.746788024902344 C 12.50511360168457 6.68566370010376 12.43891716003418 6.672659873962402 12.39412021636963 6.672659873962402 C 12.34822940826416 6.672659873962402 12.27987957000732 6.686309814453125 12.21482944488525 6.751349925994873 L 8.50747013092041 10.45870971679688 L 8.15392017364502 10.81227016448975 L 7.800369739532471 10.45870971679688 L 6.209359645843506 8.86769962310791 C 6.144309997558594 8.80265998840332 6.0759596824646 8.789010047912598 6.030069828033447 8.789010047912598 Z"/><path class="d" d="M 9.20458984375 2 C 5.227060317993164 2 2 5.227060317993164 2 9.20458984375 C 2 13.18211936950684 5.227060317993164 16.4091796875 9.20458984375 16.4091796875 C 13.18211936950684 16.4091796875 16.4091796875 13.18211936950684 16.4091796875 9.20458984375 C 16.4091796875 5.227060317993164 13.18211936950684 2 9.20458984375 2 M 8.15392017364502 11.93632984161377 C 7.958800315856934 11.93632984161377 7.763669967651367 11.86128044128418 7.628589630126953 11.71118927001953 L 5.49722957611084 9.579830169677734 C 5.197039604187012 9.279640197753906 5.197039604187012 8.814339637756348 5.49722957611084 8.51414966583252 C 5.647324562072754 8.364054679870605 5.83869743347168 8.289007186889648 6.030070304870605 8.289007186889648 C 6.221442222595215 8.289007186889648 6.412815093994141 8.364054679870605 6.562910079956055 8.51414966583252 L 8.15392017364502 10.10515975952148 L 11.86128044128418 6.397799491882324 C 12.01137542724609 6.24770450592041 12.2027473449707 6.172657012939453 12.39411926269531 6.172657012939453 C 12.58549213409424 6.172657012939453 12.77686500549316 6.24770450592041 12.92695999145508 6.397799491882324 C 13.21213912963867 6.697989463806152 13.21213912963867 7.163290023803711 12.91194915771484 7.463479995727539 L 8.67924976348877 11.71118927001953 C 8.544169425964355 11.84626960754395 8.349040031433105 11.93632984161377 8.15392017364502 11.93632984161377 M 9.20458984375 1 C 13.7286205291748 1 17.4091796875 4.680560111999512 17.4091796875 9.20458984375 C 17.4091796875 13.7286205291748 13.7286205291748 17.4091796875 9.20458984375 17.4091796875 C 4.680560111999512 17.4091796875 1 13.7286205291748 1 9.20458984375 C 1 4.680560111999512 4.680560111999512 1 9.20458984375 1 Z"/></g></g></svg>