<svg xmlns="http://www.w3.org/2000/svg" width="16.554" height="13.544" viewBox="0 0 16.554 13.544"><defs><style>.a{fill:#7f7f7f;}</style></defs><g transform="translate(-1 -3)"><path class="a" d="M16.8,3H1.752A.752.752,0,0,0,1,3.752v12.04a.752.752,0,0,0,.752.752H16.8a.752.752,0,0,0,.752-.752V3.752A.752.752,0,0,0,16.8,3Zm-.752,12.04H2.5V4.5H16.049Z"/><path class="a" d="M4.379,8.405l5.267,3.01a.751.751,0,0,0,.746,0l5.267-3.01A.752.752,0,1,0,14.914,7.1L10.02,9.9,5.126,7.1a.752.752,0,1,0-.746,1.306Z" transform="translate(-0.743 -0.99)"/><path class="a" d="M6.725,13.22l-1.5,1.5a.752.752,0,1,0,1.064,1.064l1.5-1.5A.752.752,0,1,0,6.725,13.22Z" transform="translate(-0.99 -2.475)"/><path class="a" d="M16.284,13.22a.752.752,0,1,0-1.064,1.064l1.5,1.5a.752.752,0,1,0,1.064-1.064Z" transform="translate(-3.465 -2.475)"/></g></svg>