<svg xmlns="http://www.w3.org/2000/svg" width="13.875" height="17" viewBox="0 0 13.875 17"><defs><style>.a{fill:#7f7f7f;}</style></defs><path class="a" d="M6.616,16.932A10.764,10.764,0,0,1,0,6.918a6.937,6.937,0,0,1,13.875.038A10.763,10.763,0,0,1,7.26,16.931a.79.79,0,0,1-.644,0ZM1.542,6.97a9.039,9.039,0,0,0,5.395,8.41,9.026,9.026,0,0,0,5.395-8.359V6.97a5.395,5.395,0,0,0-10.789,0Zm2.309,0a3.086,3.086,0,1,1,3.086,3.086A3.086,3.086,0,0,1,3.851,6.97Zm1.543,0A1.543,1.543,0,1,0,6.937,5.428,1.543,1.543,0,0,0,5.394,6.97Z"/></svg>