<svg xmlns="http://www.w3.org/2000/svg" width="17.005" height="17" viewBox="0 0 17.005 17"><defs><style>.a{fill:#7f7f7f;}</style></defs><path class="a" d="M17.973,15.45A2.371,2.371,0,0,0,17.3,13.4l-1.611-1.611a2.4,2.4,0,0,0-2.661-.5,3.748,3.748,0,0,0-1.137.763c-.395.4-1.848-.178-3.3-1.632s-2.027-2.908-1.635-3.3a3.748,3.748,0,0,0,.763-1.137,2.4,2.4,0,0,0-.5-2.661L5.6,1.7a2.367,2.367,0,0,0-2.052-.675A2.4,2.4,0,0,0,1.772,2.292a6.629,6.629,0,0,0-.562,4.78c1.027,4.08,6.634,9.687,10.714,10.714A6.884,6.884,0,0,0,13.609,18a6.6,6.6,0,0,0,3.1-.773A2.4,2.4,0,0,0,17.973,15.45Zm-1.529-.232a.858.858,0,0,1-.457.639,5.033,5.033,0,0,1-3.683.43C8.8,15.4,3.6,10.2,2.712,6.695a5.041,5.041,0,0,1,.43-3.686.859.859,0,0,1,.639-.454.816.816,0,0,1,.13-.01.839.839,0,0,1,.6.25L6.12,4.406a.849.849,0,0,1,.185.937,2.241,2.241,0,0,1-.444.679C4.528,7.351,5.72,9.732,7.49,11.509s4.155,2.964,5.487,1.632a2.244,2.244,0,0,1,.675-.444.85.85,0,0,1,.938.185L16.2,14.493A.84.84,0,0,1,16.444,15.218Z" transform="translate(-0.997 -0.998)"/></svg>